<svg width="20" height="20" viewBox="0 0 20 20" fill="none" xmlns="http://www.w3.org/2000/svg" class="fill-dark-1 js-on-edit" sf-label="SVG icon" sf-type="svg" sf-uid="32" draggable="true"><path d="M19.4565 8.15425C19.5795 8.81325 19.6465 9.50225 19.6465 10.2213C19.6465 15.8453 15.8825 19.8442 10.1975 19.8442C8.90467 19.8446 7.62442 19.5903 6.42991 19.0957C5.23541 18.6012 4.15006 17.8761 3.23588 16.9619C2.3217 16.0477 1.59661 14.9624 1.10204 13.7679C0.607475 12.5733 0.353122 11.2931 0.353516 10.0003C0.353122 8.70741 0.607475 7.42716 1.10204 6.23265C1.59661 5.03814 2.3217 3.95279 3.23588 3.03861C4.15006 2.12443 5.23541 1.39935 6.42991 0.904778C7.62442 0.41021 8.90467 0.155856 10.1975 0.15625C12.8555 0.15625 15.0765 1.13425 16.7805 2.72225L14.0055 5.49725V5.49025C12.9725 4.50625 11.6615 4.00125 10.1975 4.00125C6.94952 4.00125 4.30952 6.74525 4.30952 9.99425C4.30952 13.2423 6.94952 15.9923 10.1975 15.9923C13.1445 15.9923 15.1505 14.3073 15.5625 11.9933H10.1975V8.15425H19.4575H19.4565Z"></path></svg>