<svg width="20" height="20" viewBox="0 0 20 20" fill="none"  class="fill-dark-3 js-on-edit" sf-label="SVG icon" sf-type="svg" sf-uid="14" draggable="true">
																	<path fill-rule="evenodd" clip-rule="evenodd" d="M17.5002 3.75H2.5002C2.16868 3.75 1.85074 3.8817 1.61632 4.11612C1.3819 4.35054 1.2502 4.66848 1.2502 5V5.27104L10.0002 10.5213L18.7502 5.27098V5C18.7502 4.66848 18.6185 4.35054 18.3841 4.11612C18.1497 3.8817 17.8317 3.75 17.5002 3.75ZM0.000203451 5.64224C-6.77314e-05 5.63161 -6.79025e-05 5.62098 0.000203451 5.61034V5C0.000203451 4.33696 0.263596 3.70107 0.732437 3.23223C1.20128 2.76339 1.83716 2.5 2.5002 2.5H17.5002C18.1632 2.5 18.7991 2.76339 19.268 3.23223C19.7368 3.70107 20.0002 4.33696 20.0002 5V5.61604V5.63397V15C20.0002 15.663 19.7368 16.2989 19.268 16.7678C18.7991 17.2366 18.1632 17.5 17.5002 17.5H2.5002C1.83716 17.5 1.20128 17.2366 0.732437 16.7678C0.263596 16.2989 0.000203451 15.663 0.000203451 15V5.64224ZM18.7502 13.9117V6.72895L12.6801 10.3708L18.7502 13.9117ZM18.7051 15.3329L11.5602 11.165L11.4569 11.1048L10.0002 11.9788L8.54329 11.1049L8.44016 11.165L1.29533 15.3328C1.35239 15.5394 1.46213 15.7297 1.61632 15.8839C1.85074 16.1183 2.16868 16.25 2.5002 16.25H17.5002C17.8317 16.25 18.1497 16.1183 18.3841 15.8839C18.5383 15.7297 18.648 15.5394 18.7051 15.3329ZM1.2502 13.9117V6.73013L7.31989 10.371L1.2502 13.9117Z">
																	</path>
																</svg>