<svg width="20" height="20" viewBox="0 0 20 20" fill="none" xmlns="http://www.w3.org/2000/svg" class="fill-dark-3 js-on-edit" sf-label="SVG icon" sf-type="svg" sf-uid="18" draggable="true">
																	<path fill-rule="evenodd" clip-rule="evenodd" d="M14.375 10H5.625C5.29348 10 4.97554 10.1317 4.74112 10.3661C4.5067 10.6005 4.375 10.9185 4.375 11.25V17.5C4.375 17.8315 4.5067 18.1495 4.74112 18.3839C4.97554 18.6183 5.29348 18.75 5.625 18.75H14.375C14.7065 18.75 15.0245 18.6183 15.2589 18.3839C15.4933 18.1495 15.625 17.8315 15.625 17.5V11.25C15.625 10.9185 15.4933 10.6005 15.2589 10.3661C15.0245 10.1317 14.7065 10 14.375 10ZM5.625 8.75C4.96196 8.75 4.32607 9.01339 3.85723 9.48223C3.38839 9.95107 3.125 10.587 3.125 11.25V17.5C3.125 18.163 3.38839 18.7989 3.85723 19.2678C4.32607 19.7366 4.96196 20 5.625 20H14.375C15.038 20 15.6739 19.7366 16.1428 19.2678C16.6116 18.7989 16.875 18.163 16.875 17.5V11.25C16.875 10.587 16.6116 9.95107 16.1428 9.48223C15.6739 9.01339 15.038 8.75 14.375 8.75H5.625ZM5.625 5C5.625 3.83968 6.08594 2.72688 6.90641 1.90641C7.72688 1.08594 8.83968 0.625 10 0.625C11.1603 0.625 12.2731 1.08594 13.0936 1.90641C13.9141 2.72688 14.375 3.83968 14.375 5V8.75H13.125V5C13.125 4.1712 12.7958 3.37634 12.2097 2.79029C11.6237 2.20424 10.8288 1.875 10 1.875C9.1712 1.875 8.37634 2.20424 7.79029 2.79029C7.20424 3.37634 6.875 4.1712 6.875 5V8.75H5.625V5Z">
																	</path>
																</svg>